<?xml version="1.0" encoding="UTF-8" standalone="no"?>
<svg
   width="501"
   height="344"
   viewBox="0 0 501.00001 344.00001"
   role="img"
   artist="Katerina Limpitsouni"
   source="https://undraw.co/"
   version="1.1"
   id="svg27"
   sodipodi:docname="undraw_charts_lvf9.svg"
   inkscape:version="1.4 (e7c3feb100, 2024-10-09)"
   xmlns:inkscape="http://www.inkscape.org/namespaces/inkscape"
   xmlns:sodipodi="http://sodipodi.sourceforge.net/DTD/sodipodi-0.dtd"
   xmlns="http://www.w3.org/2000/svg"
   xmlns:svg="http://www.w3.org/2000/svg">
  <defs
     id="defs27" />
  <sodipodi:namedview
     id="namedview27"
     pagecolor="#ffffff"
     bordercolor="#000000"
     borderopacity="0.25"
     inkscape:showpageshadow="2"
     inkscape:pageopacity="0.0"
     inkscape:pagecheckerboard="0"
     inkscape:deskcolor="#d1d1d1"
     inkscape:zoom="1.5354482"
     inkscape:cx="386.53209"
     inkscape:cy="213.61841"
     inkscape:window-width="1920"
     inkscape:window-height="1019"
     inkscape:window-x="0"
     inkscape:window-y="0"
     inkscape:window-maximized="1"
     inkscape:current-layer="svg27" />
  <path
     d="M 494,0 H 7 A 7.00778,7.00778 0 0 0 0,7 v 330 a 7.00779,7.00779 0 0 0 7,7 h 487 a 7.00778,7.00778 0 0 0 7,-7 V 7 a 7.00778,7.00778 0 0 0 -7,-7 z m 5,337 a 5.002,5.002 0 0 1 -5,5 H 7 A 5.002,5.002 0 0 1 2,337 V 7 A 5.002,5.002 0 0 1 7,2 h 487 a 5.002,5.002 0 0 1 5,5 z"
     fill="#3f3d56"
     id="path5" />
  <rect
     x="1.0000143"
     y="28.03998"
     width="499"
     height="2"
     fill="#3f3d56"
     id="rect5" />
  <circle
     cx="18.000015"
     cy="15"
     r="6"
     fill="#3f3d56"
     id="circle5" />
  <circle
     cx="35.250015"
     cy="15"
     r="6"
     fill="#3f3d56"
     id="circle6" />
  <circle
     cx="52.500015"
     cy="15"
     r="6"
     fill="#3f3d56"
     id="circle7" />
  <path
     d="m 122.86811,74.5 h -84 a 7,7 0 1 1 0,-14 h 84 a 7,7 0 0 1 0,14 z"
     fill="#cccccc"
     id="path7" />
  <path
     d="m 237.86811,108.5 h -199 a 7.000002,7.000002 0 0 1 0,-14 h 199 a 7.000002,7.000002 0 0 1 0,14 z"
     fill="#cccccc"
     id="path8" />
  <path
     d="m 302.08795,122.02301 a 91.00351,91.00351 0 0 0 75.04394,142.477 v -79.44 z"
     fill="#6c63ff"
     id="path9" />
  <path
     d="m 377.13189,82.5 a 90.896,90.896 0 0 0 -75.04394,39.523 l 75.04394,63.037 z"
     fill="#cccccc"
     id="path10" />
  <path
     d="m 377.13189,265.5 h -1 v -184 h 1 a 92.000002,92.000002 0 1 1 0,184 z m 1,-181.99463 v 179.98926 a 90.00019,90.00019 0 0 0 0,-179.98926 z"
     fill="#3f3d56"
     id="path11" />
  <path
     d="m 96.86811,303 h -17 a 4.50508,4.50508 0 0 1 -4.5,-4.5 v -49 a 4.50508,4.50508 0 0 1 4.5,-4.5 h 17 a 4.50507,4.50507 0 0 1 4.5,4.5 v 49 a 4.50508,4.50508 0 0 1 -4.5,4.5 z"
     fill="#cccccc"
     id="path12" />
  <path
     d="m 146.86811,303 h -17 a 4.50508,4.50508 0 0 1 -4.5,-4.5 v -72 a 4.50508,4.50508 0 0 1 4.5,-4.5 h 17 a 4.50507,4.50507 0 0 1 4.5,4.5 v 72 a 4.50508,4.50508 0 0 1 -4.5,4.5 z"
     fill="#ff6584"
     id="path13" />
  <path
     d="m 196.86811,303 h -17 a 4.50508,4.50508 0 0 1 -4.5,-4.5 v -92 a 4.50508,4.50508 0 0 1 4.5,-4.5 h 17 a 4.50507,4.50507 0 0 1 4.5,4.5 v 92 a 4.50508,4.50508 0 0 1 -4.5,4.5 z"
     fill="#6c63ff"
     id="path14" />
  <path
     d="m 96.86811,303.5 h -17 a 5.00573,5.00573 0 0 1 -5,-5 v -110 a 5.00573,5.00573 0 0 1 5,-5 h 17 a 5.00573,5.00573 0 0 1 5,5 v 110 a 5.00573,5.00573 0 0 1 -5,5 z m -17,-118 a 3.00328,3.00328 0 0 0 -3,3 v 110 a 3.00329,3.00329 0 0 0 3,3 h 17 a 3.00328,3.00328 0 0 0 3.000004,-3 v -110 a 3.00328,3.00328 0 0 0 -3.000004,-3 z"
     fill="#3f3d56"
     id="path15" />
  <path
     d="m 146.86811,303.5 h -17 a 5.00573,5.00573 0 0 1 -5,-5 v -110 a 5.00573,5.00573 0 0 1 5,-5 h 17 a 5.00573,5.00573 0 0 1 5,5 v 110 a 5.00573,5.00573 0 0 1 -5,5 z m -17,-118 a 3.00328,3.00328 0 0 0 -3,3 v 110 a 3.00329,3.00329 0 0 0 3,3 h 17 a 3.00328,3.00328 0 0 0 3,-3 v -110 a 3.00328,3.00328 0 0 0 -3,-3 z"
     fill="#3f3d56"
     id="path16" />
  <path
     d="m 196.86811,303.5 h -17 a 5.00573,5.00573 0 0 1 -5,-5 v -110 a 5.00573,5.00573 0 0 1 5,-5 h 17 a 5.00573,5.00573 0 0 1 5,5 v 110 a 5.00573,5.00573 0 0 1 -5,5 z m -17,-118 a 3.00328,3.00328 0 0 0 -3,3 v 110 a 3.00329,3.00329 0 0 0 3,3 h 17 a 3.00328,3.00328 0 0 0 3,-3 v -110 a 3.00328,3.00328 0 0 0 -3,-3 z"
     fill="#3f3d56"
     id="path17" />
  <path
     d="m 276.10629,531.44094 h -265 a 1,1 0 0 1 0,-2 h 265 a 1,1 0 0 1 0,2 z"
     fill="#3f3d56"
     id="path27"
     style="display:none" />
</svg>
