<?xml version="1.0" encoding="UTF-8" standalone="no"?>
<svg
   width="847.99738"
   height="727.30542"
   viewBox="0 0 847.99738 727.30542"
   role="img"
   artist="Katerina Limpitsouni"
   source="https://undraw.co/"
   version="1.1"
   id="svg18"
   sodipodi:docname="hero.svg"
   inkscape:version="1.4.2 (ebf0e940d0, 2025-05-08)"
   xmlns:inkscape="http://www.inkscape.org/namespaces/inkscape"
   xmlns:sodipodi="http://sodipodi.sourceforge.net/DTD/sodipodi-0.dtd"
   xmlns="http://www.w3.org/2000/svg"
   xmlns:svg="http://www.w3.org/2000/svg">
  <defs
     id="defs18" />
  <sodipodi:namedview
     id="namedview18"
     pagecolor="#ffffff"
     bordercolor="#000000"
     borderopacity="0.25"
     inkscape:showpageshadow="2"
     inkscape:pageopacity="0.0"
     inkscape:pagecheckerboard="0"
     inkscape:deskcolor="#d1d1d1"
     inkscape:zoom="1.1219496"
     inkscape:cx="423.81583"
     inkscape:cy="364.09835"
     inkscape:window-width="1920"
     inkscape:window-height="1019"
     inkscape:window-x="0"
     inkscape:window-y="0"
     inkscape:window-maximized="1"
     inkscape:current-layer="svg18" />
  <path
     d="m 210.28308,506.70391 a 7.00586,7.00586 0 0 0 6.9801,-6.54778 l 1.03964,-15.87371 a 7.00582,7.00582 0 0 0 -6.53278,-7.44874 L 87.406658,468.68922 a 14.95972,14.95972 0 1 0 -1.955,29.85549 l 124.363002,8.14394 q 0.23489,0.015 0.46842,0.0153 z"
     fill="#6c63ff"
     id="path1"
     style="fill:#155dfc;fill-opacity:1" />
  <path
     d="m 185.76049,508.75055 a 7.01468,7.01468 0 0 0 6.99773,-6.7446 l 0.88623,-23.70925 a 7.00513,7.00513 0 0 0 -6.73934,-7.26192 L 84.637778,467.21252 a 7.006,7.006 0 0 0 -7.26245,6.73934 l -0.88623,23.70925 a 7.00513,7.00513 0 0 0 6.73934,7.26192 l 102.267332,3.82226 c 0.0884,0.004 0.17709,0.005 0.26472,0.005 z"
     fill="#2f2e41"
     id="path2"
     style="fill:#4a5565;fill-opacity:1" />
  <path
     d="m 65.919608,727.30542 h 15.90792 a 7.01357,7.01357 0 0 0 7.00562,-7.00563 v -132.5833 a 7.01357,7.01357 0 0 0 -7.00562,-7.00563 h -15.90792 a 7.01357,7.01357 0 0 0 -7.00563,7.00563 v 132.5833 a 7.01357,7.01357 0 0 0 7.00563,7.00563 z"
     fill="#2f2e41"
     id="path3"
     style="fill:#4a5565;fill-opacity:1" />
  <path
     d="m 103.91961,727.30542 h 15.90792 a 7.01357,7.01357 0 0 0 7.00562,-7.00563 v -132.5833 a 7.01357,7.01357 0 0 0 -7.00562,-7.00563 h -15.90792 a 7.01357,7.01357 0 0 0 -7.005632,7.00563 v 132.5833 a 7.01357,7.01357 0 0 0 7.005632,7.00563 z"
     fill="#2f2e41"
     id="path4"
     style="fill:#4a5565;fill-opacity:1" />
  <circle
     cx="-90.080353"
     cy="387.37851"
     r="54.967239"
     fill="#6c63ff"
     id="circle4"
     transform="scale(-1,1)"
     style="fill:#155dfc;fill-opacity:1" />
  <path
     d="m 119.83375,406.14625 a 13.03641,13.03641 0 0 0 4.76048,-2.7944 8.76616,8.76616 0 0 0 2.56244,-6.93989 5.89715,5.89715 0 0 0 -2.62177,-4.53865 c -1.96567,-1.26091 -4.59469,-1.26464 -7.27145,-0.085 l 0.10132,-21.45843 -2.15543,-0.0103 -0.11924,25.22665 1.66087,-1.04474 c 1.92594,-1.20943 4.6764,-2.06074 6.61987,-0.81377 a 3.787,3.787 0 0 1 1.6399,2.93042 6.62428,6.62428 0 0 1 -1.90529,5.17441 c -2.3802,2.27364 -5.85285,2.98465 -9.81293,3.62 l 0.34163,2.12812 a 35.52789,35.52789 0 0 0 6.1996,-1.39445 z"
     fill="#2f2e41"
     id="path5" />
  <rect
     x="-386.50092"
     y="-90.036484"
     width="2.1553066"
     height="11.609571"
     transform="matrix(-0.13093021,-0.99139159,-0.99139159,0.13093021,0,0)"
     fill="#2f2e41"
     id="rect5"
     style="stroke-width:0.999998" />
  <rect
     x="-386.49692"
     y="-53.394302"
     width="2.1553099"
     height="11.60959"
     transform="matrix(-0.13092763,-0.99139193,-0.99139193,0.13092763,0,0)"
     fill="#2f2e41"
     id="rect6" />
  <path
     d="m 54.237658,623.28879 h 82.634732 a 9.17744,9.17744 0 0 0 8.8945,-6.96226 8.998,8.998 0 0 0 0.12052,-3.32 c 0,0 -16.14133,-90.643 -24.1262,-134.17562 A 27.575,27.575 0 0 0 94.633208,456.23147 h -8e-5 a 59.61184,59.61184 0 0 0 -59.61184,59.61184 v 88.22912 a 19.21633,19.21633 0 0 0 19.21637,19.21636 z"
     fill="#2f2e41"
     id="path6"
     style="fill:#4a5565;fill-opacity:1" />
  <path
     d="m 70.172658,611.31187 a 7.01687,7.01687 0 0 0 6.56512,3.87532 l 15.89373,-0.66973 a 7.005,7.005 0 0 0 6.70427,-7.29429 l -5.24527,-124.51908 a 14.959104,14.959104 0 1 0 -29.8917,1.25916 l 5.24468,124.51908 a 6.96673,6.96673 0 0 0 0.72917,2.82954 z"
     fill="#6c63ff"
     id="path7"
     style="fill:#155dfc;fill-opacity:1" />
  <path
     d="m 62.037348,578.2959 a 7.0165,7.0165 0 0 0 6.565,3.87508 l 27.14739,-1.14368 a 7.01359,7.01359 0 0 0 6.704272,-7.29429 l -4.307282,-102.248 a 7.00506,7.00506 0 0 0 -7.29417,-6.70463 l -27.14693,1.14345 a 7.00506,7.00506 0 0 0 -6.70427,7.29429 l 4.30681,102.24828 a 6.9752,6.9752 0 0 0 0.72918,2.8295 z"
     fill="#2f2e41"
     id="path8"
     style="fill:#4a5565;fill-opacity:1" />
  <path
     d="m 93.135248,351.67471 c 11.856542,4.67559 29.771872,9.64567 37.588632,-4.23554 a 22.68624,22.68624 0 0 0 1.28638,-18.63818 c -2.36074,-6.549 -7.383,-11.94438 -13.10609,-15.757 -10.72056,-7.14174 -24.285002,-9.08593 -36.770182,-6.32566 a 50.1646,50.1646 0 0 0 -17.54718,7.54109 c -6.03962,4.14019 -10.29185,9.72895 -14.566,15.57808 -4.36955,5.97962 -9.31751,12.01062 -16.49852,14.63032 -5.87129,2.14191 -13.23325,1.04848 -17.387,-3.9354 a 12.17706,12.17706 0 0 1 -2.19395,-3.93539 c -0.62333,-1.83172 2.27331,-2.618 2.89284,-0.79752 2.18279,6.41434 10.21754,7.85183 15.89061,5.77548 7.48914,-2.741 12.21965,-9.86207 16.711,-16.00989 4.29376,-5.87736 9.04106,-11.05157 15.24261,-14.95 a 52.93021,52.93021 0 0 1 18.20543,-7.10741 c 12.99844,-2.47269 26.997352,-0.28121 38.013152,7.26986 a 36.7187,36.7187 0 0 1 13.66868,16.33668 25.89351,25.89351 0 0 1 -0.1787,19.64383 20.849,20.849 0 0 1 -15.09738,12.30324 c -7.26357,1.47192 -14.81,-0.22151 -21.704652,-2.55543 -1.76653,-0.598 -3.51237,-1.25419 -5.24717,-1.9383 -1.7754,-0.70013 -1.002,-3.6025 0.79752,-2.89284 z"
     fill="#2f2e41"
     id="path9" />
  <path
     d="M 813.72684,13.85419 H 437.40799 a 34.30948,34.30948 0 0 0 -34.271,34.27093 v 205.87579 a 34.30947,34.30947 0 0 0 34.271,34.27088 h 376.31885 a 34.30936,34.30936 0 0 0 34.2705,-34.27088 V 48.12512 a 34.30936,34.30936 0 0 0 -34.2705,-34.27093 z"
     fill="#ffffff"
     id="path11" />
  <path
     d="m 810.05474,375.8365 a 8.63,8.63 0 0 0 3.30688,-0.66895 8.3678,8.3678 0 0 0 5.24707,-7.85254 v -71.16992 l -94.88256,-3.19238 80.37231,80.37256 a 8.38269,8.38269 0 0 0 5.9563,2.51123 z"
     fill="#f2f2f2"
     id="path12" />
  <path
     d="M 219.49104,105 H 595.8094 a 48.17928,48.17928 0 0 1 48.125,48.12512 v 205.87579 a 48.17923,48.17923 0 0 1 -48.125,48.12506 H 219.49104 a 48.17923,48.17923 0 0 1 -48.125,-48.12506 V 153.12512 A 48.17928,48.17928 0 0 1 219.49104,105 Z"
     fill="#e6e6e6"
     id="path14" />
  <path
     d="M 219.49055,118.85419 H 595.8094 a 34.30948,34.30948 0 0 1 34.271,34.27093 v 205.87579 a 34.30947,34.30947 0 0 1 -34.271,34.27088 H 219.49055 A 34.30937,34.30937 0 0 1 185.22004,359.00091 V 153.12512 a 34.30937,34.30937 0 0 1 34.27051,-34.27093 z"
     fill="#ffffff"
     id="path15" />
  <path
     d="m 248.11895,478.32527 80.37231,-80.37256 -94.88257,3.19238 v 71.16992 a 8.36781,8.36781 0 0 0 5.24707,7.85254 8.63008,8.63008 0 0 0 3.30689,0.66895 8.38269,8.38269 0 0 0 5.9563,-2.51123 z"
     fill="#e6e6e6"
     id="path16" />
  <circle
     cx="-490.65021"
     cy="256.06299"
     r="26"
     fill="#6c63ff"
     id="circle16"
     transform="scale(-1,1)"
     style="fill:#155dfc;fill-opacity:1" />
  <circle
     cx="-407.65021"
     cy="256.06299"
     r="26"
     fill="#6c63ff"
     id="circle17"
     transform="scale(-1,1)"
     style="fill:#155dfc;fill-opacity:1" />
  <circle
     cx="-324.65024"
     cy="256.06299"
     r="26"
     fill="#6c63ff"
     id="circle18"
     transform="scale(-1,1)"
     style="fill:#155dfc;fill-opacity:1" />
</svg>
