<?xml version="1.0" encoding="UTF-8" standalone="no"?>
<!-- Created with Inkscape (http://www.inkscape.org/) -->

<svg
   width="38mm"
   height="13.758mm"
   viewBox="0 0 37.999999 13.758"
   version="1.1"
   id="svg1"
   inkscape:version="1.4.2 (ebf0e940d0, 2025-05-08)"
   sodipodi:docname="logo2.svg"
   xmlns:inkscape="http://www.inkscape.org/namespaces/inkscape"
   xmlns:sodipodi="http://sodipodi.sourceforge.net/DTD/sodipodi-0.dtd"
   xmlns="http://www.w3.org/2000/svg"
   xmlns:svg="http://www.w3.org/2000/svg">
  <sodipodi:namedview
     id="namedview1"
     pagecolor="#ffffff"
     bordercolor="#000000"
     borderopacity="0.25"
     inkscape:showpageshadow="2"
     inkscape:pageopacity="0.0"
     inkscape:pagecheckerboard="0"
     inkscape:deskcolor="#d1d1d1"
     inkscape:document-units="mm"
     inkscape:zoom="8"
     inkscape:cx="52.4375"
     inkscape:cy="39.0625"
     inkscape:window-width="1920"
     inkscape:window-height="1019"
     inkscape:window-x="0"
     inkscape:window-y="0"
     inkscape:window-maximized="1"
     inkscape:current-layer="layer1" />
  <defs
     id="defs1">
    <rect
       x="53.252033"
       y="12.804878"
       width="63.414635"
       height="33.130081"
       id="rect2" />
  </defs>
  <g
     inkscape:label="Layer 1"
     inkscape:groupmode="layer"
     id="layer1">
    <circle
       cx="6.8791666"
       cy="6.8791666"
       r="6.8791666"
       fill="#6c63ff"
       id="circle16"
       style="display:inline;stroke-width:0.264583;fill:#155dfc;fill-opacity:1" />
    <text
       xml:space="preserve"
       style="font-size:12.7px;font-family:Madan;-inkscape-font-specification:Madan;text-align:start;writing-mode:lr-tb;direction:ltr;text-anchor:start;white-space:pre;inline-size:43.1575;display:inline;opacity:1;fill:#6c63ff;fill-opacity:1;stroke-width:0.264583"
       x="1.9295222"
       y="11.05442"
       id="text7"
       inkscape:label="text white"><tspan
         x="1.9295222"
         y="11.05442"
         id="tspan4"><tspan
           style="fill:#fafafa"
           id="tspan3">Ca</tspan></tspan></text>
    <path
       id="text1"
       style="font-size:12.7px;font-family:Madan;-inkscape-font-specification:Madan;text-align:start;writing-mode:lr-tb;direction:ltr;text-anchor:start;white-space:pre;inline-size:43.1575;display:inline;opacity:1;fill:#155dfc;fill-opacity:1;stroke-width:0.264583"
       inkscape:label="text blue"
       d="M 27.685132 1.4024984 L 27.685132 4.1201619 C 27.685132 4.2471619 27.69352 4.4209271 27.710453 4.6410604 C 27.735853 4.852727 27.753146 5.0136516 27.761613 5.1237183 L 27.685132 5.1237183 C 27.549665 4.9374516 27.384805 4.7681389 27.190072 4.6157389 C 26.995338 4.4633389 26.766792 4.344355 26.504325 4.2596883 C 26.241859 4.166555 25.93285 4.1201619 25.57725 4.1201619 C 24.730584 4.1201619 24.04888 4.4207824 23.532414 5.0219157 C 23.024414 5.6145823 22.770186 6.4952149 22.770186 7.6636149 C 22.770186 8.8320149 23.024414 9.7126475 23.532414 10.305314 C 24.040414 10.889514 24.717664 11.18123 25.564331 11.18123 C 25.919931 11.18123 26.22894 11.134837 26.491406 11.041703 C 26.76234 10.94857 26.995338 10.82565 27.190072 10.67325 C 27.384805 10.512384 27.549665 10.334683 27.685132 10.13995 L 27.736292 10.13995 L 27.901139 11.054622 L 28.802893 11.054622 L 28.802893 1.4024984 L 27.685132 1.4024984 z M 21.335132 4.1201619 C 21.021865 4.1201619 20.734085 4.183848 20.471619 4.310848 C 20.209152 4.4293813 19.976153 4.5942415 19.772953 4.8059082 C 19.569753 5.0091082 19.396505 5.2376545 19.252572 5.4916545 L 19.201929 5.4916545 L 19.074805 4.247286 L 18.160132 4.247286 L 18.160132 11.054622 L 19.277893 11.054622 L 19.277893 7.422286 C 19.277893 7.0751526 19.328739 6.7616917 19.430339 6.4822917 C 19.540405 6.2028917 19.688489 5.9659573 19.874756 5.771224 C 20.061023 5.568024 20.272793 5.4115519 20.509859 5.3014852 C 20.746926 5.1914185 20.996701 5.1361206 21.259167 5.1361206 C 21.377701 5.1361206 21.50062 5.1445087 21.62762 5.1614421 C 21.763087 5.1783754 21.88549 5.1996041 21.995557 5.2250041 L 22.1356 4.1966431 C 22.025533 4.1712431 21.894225 4.1539501 21.741825 4.1454834 C 21.597892 4.1285501 21.462132 4.1201619 21.335132 4.1201619 z M 33.082735 4.1201619 C 32.320735 4.1201619 31.702718 4.2766341 31.228585 4.5899007 C 30.762918 4.9031674 30.529919 5.3479361 30.529919 5.9236694 C 30.529919 6.2962028 30.614834 6.6007589 30.784167 6.8378255 C 30.953501 7.0748922 31.194888 7.2782741 31.508154 7.4476074 C 31.821421 7.6169408 32.198051 7.7862534 32.638318 7.9555868 C 33.087051 8.1249201 33.430129 8.2774565 33.667196 8.4129232 C 33.912729 8.5483898 34.082042 8.6836333 34.175175 8.8190999 C 34.268308 8.9545666 34.314701 9.107103 34.314701 9.2764364 C 34.314701 9.5812364 34.187846 9.8265589 33.933846 10.012826 C 33.679846 10.190626 33.269147 10.279476 32.70188 10.279476 C 32.303947 10.279476 31.910023 10.224695 31.520557 10.114628 C 31.139557 9.9960948 30.813772 9.8692395 30.542839 9.7337728 L 30.542839 10.749731 C 30.805305 10.885198 31.105926 10.990825 31.444592 11.067025 C 31.791726 11.143225 32.202425 11.18123 32.676558 11.18123 C 33.235358 11.18123 33.717615 11.10522 34.124015 10.95282 C 34.530415 10.80042 34.843876 10.575809 35.06401 10.279476 C 35.284143 9.9831426 35.394222 9.6149004 35.394222 9.1746338 C 35.394222 8.8105671 35.31376 8.5099467 35.152893 8.27288 C 34.992026 8.0273467 34.759028 7.8200291 34.454228 7.6506958 C 34.149428 7.4813625 33.781186 7.3165022 33.349386 7.1556356 C 32.917586 6.9863022 32.570572 6.8421539 32.308105 6.7236206 C 32.054105 6.5966206 31.871952 6.4697653 31.761886 6.3427653 C 31.651819 6.2072986 31.597038 6.0463741 31.597038 5.8601074 C 31.597038 5.6061074 31.715505 5.407178 31.952572 5.2632446 C 32.198105 5.1108446 32.549571 5.0348348 33.006771 5.0348348 C 33.336971 5.0348348 33.658303 5.0767754 33.97157 5.1614421 C 34.284836 5.2461087 34.585457 5.3477997 34.873324 5.466333 L 35.254696 4.5774984 C 34.941429 4.433565 34.602804 4.323486 34.238737 4.247286 C 33.883137 4.1626193 33.497602 4.1201619 33.082735 4.1201619 z M 13.613639 4.1330811 C 13.45937 4.1330811 13.307964 4.1428155 13.157853 4.157369 A 6.8791666 6.9122396 0 0 1 13.467912 5.0379354 C 13.49542 5.0372668 13.522363 5.0348348 13.550077 5.0348348 C 13.998811 5.0348348 14.345824 5.1449139 14.591357 5.3650472 C 14.836891 5.5851805 14.95981 5.978587 14.95981 6.5458537 L 14.95981 6.9525472 L 13.804325 6.990271 C 13.774245 6.9911895 13.746649 6.9937543 13.716992 6.9949219 A 6.8791666 6.9122396 0 0 1 13.660665 7.7860881 C 13.755331 7.7790403 13.841662 7.7689883 13.943852 7.7649007 L 14.947408 7.7271769 L 14.947408 8.3364421 C 14.947408 8.996842 14.756867 9.4880038 14.375867 9.8097371 C 13.994867 10.123004 13.516545 10.279476 12.940812 10.279476 C 12.898898 10.279476 12.860637 10.274081 12.820406 10.271724 A 6.8791666 6.9122396 0 0 1 12.238529 11.146606 C 12.382909 11.16769 12.531023 11.18123 12.686564 11.18123 C 13.067564 11.18123 13.389413 11.143225 13.65188 11.067025 C 13.922813 10.990825 14.159748 10.872358 14.362948 10.711491 C 14.574614 10.542158 14.777996 10.33484 14.972729 10.089307 L 15.023372 10.089307 L 15.23938 11.054622 L 16.05225 11.054622 L 16.05225 6.4187297 C 16.05225 5.622863 15.853321 5.0428508 15.455387 4.6787842 C 15.057454 4.3147175 14.443373 4.1330811 13.613639 4.1330811 z M 25.729696 5.0472371 C 26.483229 5.0472371 26.999555 5.2757834 27.278955 5.7329834 C 27.558355 6.1817167 27.698051 6.8293506 27.698051 7.6760173 L 27.698051 7.8796224 C 27.698051 8.6754891 27.549967 9.2722774 27.253634 9.6702108 C 26.965767 10.059677 26.461765 10.254154 25.742098 10.254154 C 25.132498 10.254154 24.675405 10.030061 24.370605 9.5813273 C 24.074272 9.132594 23.926188 8.5017363 23.926188 7.6889364 C 23.926188 6.884603 24.074272 6.2453573 24.370605 5.771224 C 24.675405 5.288624 25.128562 5.0472371 25.729696 5.0472371 z " />
  </g>
</svg>
