<?xml version="1.0" encoding="UTF-8" standalone="no"?>
<!-- Created with Inkscape (http://www.inkscape.org/) -->

<svg
   width="13.758mm"
   height="13.758mm"
   viewBox="0 0 13.757999 13.758"
   version="1.1"
   id="svg1"
   inkscape:version="1.4 (e7c3feb100, 2024-10-09)"
   sodipodi:docname="logo_circle.svg"
   xmlns:inkscape="http://www.inkscape.org/namespaces/inkscape"
   xmlns:sodipodi="http://sodipodi.sourceforge.net/DTD/sodipodi-0.dtd"
   xmlns="http://www.w3.org/2000/svg"
   xmlns:svg="http://www.w3.org/2000/svg">
  <sodipodi:namedview
     id="namedview1"
     pagecolor="#ffffff"
     bordercolor="#000000"
     borderopacity="0.25"
     inkscape:showpageshadow="2"
     inkscape:pageopacity="0.0"
     inkscape:pagecheckerboard="0"
     inkscape:deskcolor="#d1d1d1"
     inkscape:document-units="mm"
     inkscape:zoom="8"
     inkscape:cx="52.4375"
     inkscape:cy="39.125"
     inkscape:window-width="1920"
     inkscape:window-height="1019"
     inkscape:window-x="0"
     inkscape:window-y="0"
     inkscape:window-maximized="1"
     inkscape:current-layer="layer1" />
  <defs
     id="defs1">
    <rect
       x="53.252033"
       y="12.804878"
       width="63.414635"
       height="33.130081"
       id="rect2" />
  </defs>
  <g
     inkscape:label="Layer 1"
     inkscape:groupmode="layer"
     id="layer1">
    <circle
       cx="6.8791666"
       cy="6.8791666"
       r="6.8791666"
       fill="#6c63ff"
       id="circle16"
       style="display:inline;stroke-width:0.264583" />
    <text
       xml:space="preserve"
       style="font-size:12.7px;font-family:Madan;-inkscape-font-specification:Madan;text-align:start;writing-mode:lr-tb;direction:ltr;text-anchor:start;white-space:pre;inline-size:43.1575;display:inline;opacity:1;fill:#6c63ff;fill-opacity:1;stroke-width:0.264583"
       x="1.9295222"
       y="11.05442"
       id="text7"
       inkscape:label="text white"><tspan
         x="1.9295222"
         y="11.05442"
         id="tspan2"><tspan
           style="fill:#fafafa"
           id="tspan1">Ca</tspan></tspan></text>
    <path
       id="text1"
       style="font-size:12.7px;font-family:Madan;-inkscape-font-specification:Madan;text-align:start;writing-mode:lr-tb;direction:ltr;text-anchor:start;white-space:pre;inline-size:43.1575;display:none;opacity:1;fill:#6c63ff;fill-opacity:1;stroke-width:0.264583"
       inkscape:label="text blue"
       d="m 27.685132,1.4024984 v 2.7176635 c 0,0.127 0.0084,0.3007652 0.02532,0.5208985 0.0254,0.2116666 0.04269,0.3725912 0.05116,0.4826579 h -0.07648 C 27.549665,4.9374516 27.384805,4.7681389 27.190072,4.6157389 26.995338,4.4633389 26.766792,4.344355 26.504325,4.2596883 26.241859,4.166555 25.93285,4.1201619 25.57725,4.1201619 c -0.846666,0 -1.52837,0.3006205 -2.044836,0.9017538 -0.508,0.5926666 -0.762228,1.4732992 -0.762228,2.6416992 0,1.1684 0.254228,2.0490326 0.762228,2.6416991 0.508,0.5842 1.18525,0.875916 2.031917,0.875916 0.3556,0 0.664609,-0.04639 0.927075,-0.139527 0.270934,-0.09313 0.503932,-0.216053 0.698666,-0.368453 0.194733,-0.160866 0.359593,-0.338567 0.49506,-0.5333 h 0.05116 l 0.164847,0.914672 h 0.901754 V 1.4024984 Z m -6.35,2.7176635 c -0.313267,0 -0.601047,0.063686 -0.863513,0.1906861 -0.262467,0.1185333 -0.495466,0.2833935 -0.698666,0.4950602 -0.2032,0.2032 -0.376448,0.4317463 -0.520381,0.6857463 h -0.05064 L 19.074805,4.247286 h -0.914673 v 6.807336 h 1.117761 V 7.422286 c 0,-0.3471334 0.05085,-0.6605943 0.152446,-0.9399943 0.110066,-0.2794 0.25815,-0.5163344 0.444417,-0.7110677 0.186267,-0.2032 0.398037,-0.3596721 0.635103,-0.4697388 0.237067,-0.1100667 0.486842,-0.1653646 0.749308,-0.1653646 0.118534,0 0.241453,0.00839 0.368453,0.025322 0.135467,0.016933 0.25787,0.038162 0.367937,0.063562 L 22.1356,4.1966431 c -0.110067,-0.0254 -0.241375,-0.042693 -0.393775,-0.05116 -0.143933,-0.016933 -0.279693,-0.025321 -0.406693,-0.025321 z m 11.747603,0 c -0.762,0 -1.380017,0.1564722 -1.85415,0.4697388 -0.465667,0.3132667 -0.698666,0.7580354 -0.698666,1.3337687 0,0.3725334 0.08491,0.6770895 0.254248,0.9141561 0.169334,0.2370667 0.410721,0.4404486 0.723987,0.6097819 0.313267,0.1693334 0.689897,0.338646 1.130164,0.5079794 0.448733,0.1693333 0.791811,0.3218697 1.028878,0.4573364 0.245533,0.1354666 0.414846,0.2707101 0.507979,0.4061767 0.09313,0.1354667 0.139526,0.2880031 0.139526,0.4573365 0,0.3048 -0.126855,0.5501225 -0.380855,0.7363896 -0.254,0.1778 -0.664699,0.26665 -1.231966,0.26665 -0.397933,0 -0.791857,-0.05478 -1.181323,-0.164848 -0.381,-0.1185332 -0.706785,-0.2453885 -0.977718,-0.3808552 v 1.0159582 c 0.262466,0.135467 0.563087,0.241094 0.901753,0.317294 0.347134,0.0762 0.757833,0.114205 1.231966,0.114205 0.5588,0 1.041057,-0.07601 1.447457,-0.22841 0.4064,-0.1524 0.719861,-0.377011 0.939995,-0.673344 0.220133,-0.2963334 0.330212,-0.6645756 0.330212,-1.1048422 0,-0.3640667 -0.08046,-0.6646871 -0.241329,-0.9017538 -0.160867,-0.2455333 -0.393865,-0.4528509 -0.698665,-0.6221842 -0.3048,-0.1693333 -0.673042,-0.3341936 -1.104842,-0.4950602 -0.4318,-0.1693334 -0.778814,-0.3134817 -1.041281,-0.432015 -0.254,-0.127 -0.436153,-0.2538553 -0.546219,-0.3808553 -0.110067,-0.1354667 -0.164848,-0.2963912 -0.164848,-0.4826579 0,-0.254 0.118467,-0.4529294 0.355534,-0.5968628 0.245533,-0.1524 0.596999,-0.2284098 1.054199,-0.2284098 0.3302,0 0.651532,0.041941 0.964799,0.1266073 0.313266,0.084667 0.613887,0.1863576 0.901754,0.3048909 L 35.254696,4.5774984 C 34.941429,4.433565 34.602804,4.323486 34.238737,4.247286 33.883137,4.1626193 33.497602,4.1201619 33.082735,4.1201619 Z m -19.469096,0.012919 c -0.154269,0 -0.305675,0.00973 -0.455786,0.024288 a 6.8791666,6.9122396 0 0 1 0.310059,0.8805664 c 0.02751,-6.686e-4 0.05445,-0.0031 0.08216,-0.0031 0.448734,0 0.795747,0.1100791 1.04128,0.3302124 0.245534,0.2201333 0.368453,0.6135398 0.368453,1.1808065 v 0.4066935 l -1.155485,0.037724 c -0.03008,9.185e-4 -0.05768,0.00348 -0.08733,0.00465 a 6.8791666,6.9122396 0 0 1 -0.05633,0.7911662 c 0.09467,-0.00705 0.180997,-0.0171 0.283187,-0.021187 l 1.003556,-0.037724 v 0.6092652 c 0,0.6603999 -0.190541,1.1515617 -0.571541,1.473295 -0.381,0.3132669 -0.859322,0.4697389 -1.435055,0.4697389 -0.04191,0 -0.08017,-0.0054 -0.120406,-0.0078 a 6.8791666,6.9122396 0 0 1 -0.581877,0.874882 c 0.14438,0.02108 0.292494,0.03462 0.448035,0.03462 0.381,0 0.702849,-0.03801 0.965316,-0.114205 0.270933,-0.0762 0.507868,-0.194667 0.711068,-0.355534 0.211666,-0.169333 0.415048,-0.376651 0.609781,-0.622184 h 0.05064 l 0.216008,0.965315 h 0.81287 V 6.4187297 c 0,-0.7958667 -0.198929,-1.3758789 -0.596863,-1.7399455 -0.397925,-0.3640667 -1.012006,-0.5457031 -1.84174,-0.5457033 z m 12.116057,0.914156 c 0.753533,0 1.269859,0.2285463 1.549259,0.6857463 0.2794,0.4487333 0.419096,1.0963672 0.419096,1.9430339 v 0.2036051 c 0,0.7958667 -0.148084,1.392655 -0.444417,1.7905884 -0.287867,0.3894664 -0.791869,0.5839434 -1.511536,0.5839434 -0.6096,0 -1.066693,-0.224093 -1.371493,-0.6728269 -0.296333,-0.4487333 -0.444417,-1.079591 -0.444417,-1.8923909 0,-0.8043334 0.148084,-1.4435791 0.444417,-1.9177124 0.3048,-0.4826 0.757957,-0.7239869 1.359091,-0.7239869 z" />
  </g>
</svg>
